Generated by Kayac.ObjFileWriter. 6 vertices
# positions
v -0.50000000 0.00000000 0.00000000
v 0.00000000 -0.50000000 0.00000000
v 0.00000000 0.00000000 -0.50000000
v 0.00000000 0.00000000 0.50000000
v 0.00000000 0.50000000 0.00000000
v 0.50000000 0.00000000 0.00000000

# normals
vn -0.50000000 0.00000000 0.00000000
vn 0.00000000 -0.50000000 0.00000000
vn 0.00000000 0.00000000 -0.50000000
vn 0.00000000 0.00000000 0.50000000
vn 0.00000000 0.50000000 0.00000000
vn 0.50000000 0.00000000 0.00000000

usemtl 0
# triangle faces
f 1//1 3//3 2//2
f 1//1 5//5 3//3
f 4//4 1//1 2//2
f 4//4 5//5 1//1
f 6//6 4//4 2//2
f 6//6 5//5 4//4
f 3//3 6//6 2//2
f 3//3 5//5 6//6
