Generated by Kayac.ObjFileWriter. 10 vertices, 16 faces.
# positions
v 0.00000000 0.50000000 0.00000000
v 0.47140450 -0.16666670 0.00000000
v -0.23570230 -0.16666670 0.40824830
v -0.23570230 -0.16666670 -0.40824830
v -0.20412420 0.28867510 0.35355340
v 0.20412420 -0.28867520 0.35355340
v 0.40824830 0.28867510 0.00000000
v -0.20412420 0.28867510 -0.35355340
v -0.40824830 -0.28867520 0.00000000
v 0.20412420 -0.28867520 -0.35355340

# normals
vn 0.00000000 0.50000000 0.00000000
vn 0.47140450 -0.16666670 0.00000000
vn -0.23570230 -0.16666670 0.40824830
vn -0.23570230 -0.16666670 -0.40824830
vn -0.20412420 0.28867510 0.35355340
vn 0.20412420 -0.28867520 0.35355340
vn 0.40824830 0.28867510 0.00000000
vn -0.20412420 0.28867510 -0.35355340
vn -0.40824830 -0.28867520 0.00000000
vn 0.20412420 -0.28867520 -0.35355340

# triangle faces
f 5/5/5 6/6/6 7/7/7
f 8/8/8 9/9/9 5/5/5
f 7/7/7 10/10/10 8/8/8
f 6/6/6 9/9/9 10/10/10
f 5/5/5 3/3/3 6/6/6
f 6/6/6 2/2/2 7/7/7
f 7/7/7 1/1/1 5/5/5
f 8/8/8 4/4/4 9/9/9
f 9/9/9 3/3/3 5/5/5
f 5/5/5 1/1/1 8/8/8
f 7/7/7 2/2/2 10/10/10
f 10/10/10 4/4/4 8/8/8
f 8/8/8 1/1/1 7/7/7
f 6/6/6 3/3/3 9/9/9
f 9/9/9 4/4/4 10/10/10
f 10/10/10 2/2/2 6/6/6
